<svg version="1.2" xmlns="http://www.w3.org/2000/svg" xmlns:xlink="http://www.w3.org/1999/xlink" overflow="visible" preserveAspectRatio="none" viewBox="0 0 22 22" width="22" height="22"><g transform="translate(0, 0)"><defs><path id="path-1718348058567140" d="M10.813733333333335 -16.5 C10.813733333333335 -16.5 19.168233333333333 -8.1455 19.168233333333333 -8.1455 C19.168233333333333 -8.1455 17.599999999999998 -6.6 17.599999999999998 -6.6 C17.599999999999998 -6.6 6.6 -17.599999999999998 6.6 -17.599999999999998 C6.6 -17.599999999999998 17.599999999999998 -28.6 17.599999999999998 -28.6 C17.599999999999998 -28.6 19.168233333333333 -27.054500000000004 19.168233333333333 -27.054500000000004 C19.168233333333333 -27.054500000000004 10.813733333333335 -18.700000000000003 10.813733333333335 -18.700000000000003 C10.813733333333335 -18.700000000000003 28.6 -18.700000000000003 28.6 -18.700000000000003 C28.6 -18.700000000000003 28.6 -16.5 28.6 -16.5 C28.6 -16.5 10.813733333333335 -16.5 10.813733333333335 -16.5 Z" vector-effect="non-scaling-stroke"/></defs><g transform="translate(-6.6, 28.6)"><path style="stroke-width: 0; stroke-linecap: butt; stroke-linejoin: miter; fill: rgb(95, 99, 104);" d="M10.813733333333335 -16.5 C10.813733333333335 -16.5 19.168233333333333 -8.1455 19.168233333333333 -8.1455 C19.168233333333333 -8.1455 17.599999999999998 -6.6 17.599999999999998 -6.6 C17.599999999999998 -6.6 6.6 -17.599999999999998 6.6 -17.599999999999998 C6.6 -17.599999999999998 17.599999999999998 -28.6 17.599999999999998 -28.6 C17.599999999999998 -28.6 19.168233333333333 -27.054500000000004 19.168233333333333 -27.054500000000004 C19.168233333333333 -27.054500000000004 10.813733333333335 -18.700000000000003 10.813733333333335 -18.700000000000003 C10.813733333333335 -18.700000000000003 28.6 -18.700000000000003 28.6 -18.700000000000003 C28.6 -18.700000000000003 28.6 -16.5 28.6 -16.5 C28.6 -16.5 10.813733333333335 -16.5 10.813733333333335 -16.5 Z" vector-effect="non-scaling-stroke"/></g></g></svg>