<svg version="1.2" xmlns="http://www.w3.org/2000/svg" viewBox="0 0 1582 325" width="1582" height="325">
	<title>zuora-wordmark-svg</title>
	<style>
		.s0 { fill: #000000 } 
		.s1 { fill: #00d2b9 } 
	</style>
	<path id="Layer" fill-rule="evenodd" class="s0" d="m1581.4 271.3h-65l-15-52.5v-0.4h-70.6l-14.6 52.6h-63.5l66.6-220h96.2zm-90.3-88.7l-24.8-88.8-24.9 88.8zm-962.1 34.6h93.4v54.1h-207.4l100.2-165.8h-91.5v-54.1h197.5zm753.6-28.9l-3.6 0.4 57.5 83.3h-73.7l-63.9-96.9v96.2h-63.4v-221.2h124.9c17 0 32 3.1 44.6 9 11.8 5.4 22.1 14 29.2 24.9 6.3 11.3 9.9 23.4 10.2 36.2 0.4 12.8-2.7 25.3-8.6 36.6-5.6 10.1-13.8 17.9-23.7 23.4-9 5-19.3 7.8-29.5 8.1zm-3.2-59.5c0-7-2.8-14-7.9-19.1-5.2-5-12.3-7.8-19.4-7.8h-53.2v54.1h53.2c7.6 0 14.2-3.1 19.4-8.1 5.1-5.1 7.9-12.1 7.9-19.1zm-289.2 149.1c-67.3 0-121.7-52.2-121.7-116.8 0-64.6 54.4-116.8 121.7-116.8 67.2 0 121.6 52.2 121.6 116.8 0 64.6-54.4 116.8-121.6 116.8zm60.1-116c0-11.7-3.6-23-10.3-32.7-6.7-9.7-15.8-17.5-26.8-21.8-11-4.7-23.2-5.8-34.7-3.5-11.8 1.9-22.4 7.8-30.7 15.9-8.3 8.6-13.8 19.1-16.2 30.4-2.3 11.3-1.2 22.9 3.6 33.9 4.7 10.9 12.2 19.9 22 26.5 9.9 6.2 21.3 9.7 33.1 9.7 15.8 0 31.2-6.3 42.6-16.8 11.1-11.3 17.4-26 17.4-41.6zm-268.9 25.3v-135.9h63.9v129.7c0 25.7-10.3 50.2-28.8 68.5-18.6 18.3-43.8 28.4-69.8 28.4-26.5 0-51.3-10.1-69.8-28.4-18.6-18.3-28.8-42.8-28.8-68.5v-129.7h63.8v135.9c0 8.9 4 17.5 10.3 24.1 6.3 6.6 15.4 10.1 24.4 10.1 9.1 0 17.8-3.5 24.5-10.1 6.7-6.2 10.2-15.1 10.2-24.1zm783.4-117.5h-4.7v-18.6h7.3l3.2 12.4h0.1l3.2-12.4h7v18.6h-5v-13.1h-0.1l-3.6 13.1h-3.6l-3.7-13.1h-0.1zm-18-14.3h-6.2v-4.3h17.6v4.3h-6.4v14.3h-5z"/>
	<path id="Layer" fill-rule="evenodd" class="s1" d="m274.6 324.7h-196.4c-10.2 0-18.9-6.2-22.5-15.6-3.5-9.3-0.4-19.8 7.5-26.1l43.8-35.4h-82c-10.3 0-18.9-6.2-22.5-15.6-3.6-9.3-0.8-19.4 7.1-26l84.8-69.7c7.1-5.8 17.3-4.7 23.2 2 6 7 4.8 17.1-1.9 22.9l-65.4 54.1h97.3l132.5-106.7h-224c-14.6 0-28.3-5.8-39-15.9-10.2-10.2-15.8-23.8-15.8-38.2 0-14.4 5.6-28 16.2-38.5 10.3-10.1 24.1-16 38.6-16h190.9c10.2 0 18.9 6.2 22.5 15.6 3.5 9.3 0.4 19.4-7.5 26l-42.6 34.7h86c10.2 0 18.9 6.2 22.5 15.6 3.5 9.3 0.4 19.8-7.5 26.1l-121.1 97.3h75.3c14.6 0 28.4 5.8 38.7 15.9 10.2 10.1 16.1 23.8 16.1 38.5v0.8c0 14.4-5.5 28.1-16.1 38.6-10.3 10.1-24.1 15.6-38.7 15.6zm-170.7-32.3h170.7c6 0 11.5-2.3 15.8-6.3 4.3-4.2 6.3-9.7 6.3-15.5v-0.8c0-5.9-2.4-11.3-6.3-15.6-4.4-4.3-9.9-6.2-15.8-6.2h-115.5zm-47.8-260.1c-5.9 0-11.4 2.3-15.7 6.2-4.4 4.3-6.3 9.8-6.3 15.6 0 5.9 2.3 11.3 6.3 15.6 4.3 4.3 9.8 6.2 15.7 6.2h111.6l54-43.6z"/>
</svg>