<svg version="1.2" xmlns="http://www.w3.org/2000/svg" xmlns:xlink="http://www.w3.org/1999/xlink" overflow="visible" preserveAspectRatio="none" viewBox="0 0 38.999990000000004 38.999990000000004" width="38.999990000000004" height="38.999990000000004"><g transform="translate(0, 0)"><g transform="translate(6.661338147750939e-16, -0.000009999999998955289) rotate(0)"><path style="stroke-width: 0; stroke-linecap: butt; stroke-linejoin: miter; fill: rgb(57, 201, 0);" d="M16.38325,27.96679l13.85854,-13.85854l-1.53346,-1.53346l-12.32508,12.32508l-6.175,-6.175l-1.53346,1.53346zM19.50704,39c-2.69642,0 -5.2316,-0.51169 -7.60554,-1.53508c-2.37358,-1.02339 -4.43842,-2.41222 -6.1945,-4.1665c-1.75608,-1.75428 -3.14618,-3.81731 -4.17029,-6.18908c-1.02447,-2.37142 -1.53671,-4.90551 -1.53671,-7.60229c0,-2.69642 0.51169,-5.2316 1.53508,-7.60554c1.02339,-2.37358 2.41222,-4.43842 4.1665,-6.1945c1.75428,-1.75608 3.81731,-3.14618 6.18908,-4.17029c2.37142,-1.02447 4.90551,-1.53671 7.60229,-1.53671c2.69642,0 5.2316,0.51169 7.60554,1.53508c2.37358,1.02339 4.43842,2.41222 6.1945,4.1665c1.75608,1.75428 3.14618,3.81731 4.17029,6.18908c1.02447,2.37142 1.53671,4.90551 1.53671,7.60229c0,2.69642 -0.51169,5.2316 -1.53508,7.60554c-1.02339,2.37358 -2.41222,4.43842 -4.1665,6.1945c-1.75428,1.75608 -3.81731,3.14618 -6.18908,4.17029c-2.37142,1.02447 -4.90551,1.53671 -7.60229,1.53671zM19.5,36.83333c4.83889,0 8.9375,-1.67917 12.29583,-5.0375c3.35833,-3.35833 5.0375,-7.45694 5.0375,-12.29583c0,-4.83889 -1.67917,-8.9375 -5.0375,-12.29583c-3.35833,-3.35833 -7.45694,-5.0375 -12.29583,-5.0375c-4.83889,0 -8.9375,1.67917 -12.29583,5.0375c-3.35833,3.35833 -5.0375,7.45694 -5.0375,12.29583c0,4.83889 1.67917,8.9375 5.0375,12.29583c3.35833,3.35833 7.45694,5.0375 12.29583,5.0375zM19.5,19.5z" vector-effect="non-scaling-stroke"/></g><defs><path id="path-171749093628012" d="M16.38325,27.96679l13.85854,-13.85854l-1.53346,-1.53346l-12.32508,12.32508l-6.175,-6.175l-1.53346,1.53346zM19.50704,39c-2.69642,0 -5.2316,-0.51169 -7.60554,-1.53508c-2.37358,-1.02339 -4.43842,-2.41222 -6.1945,-4.1665c-1.75608,-1.75428 -3.14618,-3.81731 -4.17029,-6.18908c-1.02447,-2.37142 -1.53671,-4.90551 -1.53671,-7.60229c0,-2.69642 0.51169,-5.2316 1.53508,-7.60554c1.02339,-2.37358 2.41222,-4.43842 4.1665,-6.1945c1.75428,-1.75608 3.81731,-3.14618 6.18908,-4.17029c2.37142,-1.02447 4.90551,-1.53671 7.60229,-1.53671c2.69642,0 5.2316,0.51169 7.60554,1.53508c2.37358,1.02339 4.43842,2.41222 6.1945,4.1665c1.75608,1.75428 3.14618,3.81731 4.17029,6.18908c1.02447,2.37142 1.53671,4.90551 1.53671,7.60229c0,2.69642 -0.51169,5.2316 -1.53508,7.60554c-1.02339,2.37358 -2.41222,4.43842 -4.1665,6.1945c-1.75428,1.75608 -3.81731,3.14618 -6.18908,4.17029c-2.37142,1.02447 -4.90551,1.53671 -7.60229,1.53671zM19.5,36.83333c4.83889,0 8.9375,-1.67917 12.29583,-5.0375c3.35833,-3.35833 5.0375,-7.45694 5.0375,-12.29583c0,-4.83889 -1.67917,-8.9375 -5.0375,-12.29583c-3.35833,-3.35833 -7.45694,-5.0375 -12.29583,-5.0375c-4.83889,0 -8.9375,1.67917 -12.29583,5.0375c-3.35833,3.35833 -5.0375,7.45694 -5.0375,12.29583c0,4.83889 1.67917,8.9375 5.0375,12.29583c3.35833,3.35833 7.45694,5.0375 12.29583,5.0375zM19.5,19.5z" vector-effect="non-scaling-stroke"/></defs></g></svg>